<svg xmlns="http://www.w3.org/2000/svg" width="77.987" height="90.857" viewBox="0 0 77.987 90.857">
  <path id="copy-invert" d="M132.623,27.022C129,23.488,125.4,19.917,121.8,16.346a3.908,3.908,0,0,0-2.917-1.145q-22.3.014-44.6.009C72.081,15.21,71,16.319,71,18.527V87.446c0,2.435.936,3.4,3.353,3.407,4.016.009,8.041,0,12.057,0h43.977c2.544,0,3.416-.872,3.416-3.4q0-28.731.018-57.47A3.836,3.836,0,0,0,132.623,27.022ZM86.383,38.535q6.174,0,12.357-.009c.745,0,1.327.273,1.345,1.045.018.845-.582,1.118-1.372,1.109-2.09-.018-4.189-.009-6.279-.009-2.026,0-4.052-.009-6.079.009-.772.009-1.39-.173-1.381-1.072s.672-1.072,1.408-1.072Zm33.228,33.746a1.045,1.045,0,0,1-1.136.809c-1.654.018-3.307.018-4.961.018L86.865,73.1c-.273,0-.545.009-.809-.009A1,1,0,0,1,84.984,72c.009-.709.445-1.027,1.118-1.036,1.854-.018,3.716-.018,5.57-.018h10.74v.009h15.6a2.043,2.043,0,0,1,1.181.173,1,1,0,0,1,.418,1.154Zm-1.2-9.922c-2.126.027-4.252.018-6.379.018H102.2v-.018H86.492c-.772,0-1.463-.1-1.536-1.054-.055-.736.509-1.109,1.581-1.109h31.52c.672,0,1.327.036,1.554.818C119.829,61.777,119.321,62.35,118.412,62.359Zm.064-10.8c-2.735.018-5.47.009-8.2.009h-23.2c-.273,0-.545.027-.809.009-.709-.036-1.3-.254-1.29-1.09s.591-1.036,1.317-1.036l10.94-.009h5.17v.009h15.81c.518,0,1.027.009,1.327.545.418.745-.091,1.554-1.063,1.563Zm30.493-8.041q0-14.3.018-28.585a4.122,4.122,0,0,0-1.281-3.162c-3.489-3.389-6.969-6.787-10.386-10.249A4.825,4.825,0,0,0,133.631,0Q113.76.041,93.888.018c-1.554,0-3.107-.036-4.661,0a2.8,2.8,0,0,0-3.08,3.1c-.027,1.717.027,3.444.009,5.17-.009.554.154.791.745.763.981-.036,1.963-.009,2.935-.009,1.754,0,1.726,0,1.763-1.754.036-1.944-.373-1.808,1.863-1.817q12.716-.014,25.441-.009c4.325,0,8.65.018,12.975-.009.881-.009,1.227.218,1.2,1.19-.073,2.4-.045,4.8-.027,7.2.009,1.417.582,1.944,1.972,1.954,2.462,0,4.934.055,7.4,0,.927-.027,1.127.291,1.118,1.154-.036,5.706-.018,11.421-.018,17.128Q143.5,50.892,143.5,67.72c0,2.444.018,2.444-2.471,2.462a1.469,1.469,0,0,1-.2,0c-.554-.045-.809.182-.8.754q.027,1.976,0,3.953c-.009.563.227.781.781.781,1.826-.018,3.653.036,5.47-.036A2.592,2.592,0,0,0,148.942,73a9.34,9.34,0,0,0,.018-1.009q.014-14.243.009-28.476Z" transform="translate(-71 0)" fill="#1dbfc1"/>
</svg>
