<svg xmlns="http://www.w3.org/2000/svg" width="78.297" height="89.809" viewBox="0 0 78.297 89.809">
  <path id="doctor-alt" d="M122.836,57.386c1.679,4.769.1,8.666-2.712,12.268-.5.647-1.536,1.284-.736,2.3,2.82,3.592,3.161,8.011,4.284,12.187.368,1.374,1.356,2.524-.063,3.763a2.032,2.032,0,0,1-2.8.2c-1.437-1.114-.844-2.317-.368-3.754,2.452-7.463-4.436-15.33-12.052-13.812-1.976.4-4.059.629-5.37,2.6a1.868,1.868,0,0,1-2.748.4,2.3,2.3,0,0,1-1.141-2.281c.1-1,.683-1.958,1.6-1.895,4.921.323,9.8-2.667,14.719-.26,1.563.763,2.308-.108,3.161-1.194C123.231,62,121.983,57,114.43,53.12a25.2,25.2,0,0,0,9.106-13.5,2.659,2.659,0,0,1,1.159-1.877c3.978-2.317,4.221-6.017,2.865-9.717a12.041,12.041,0,0,1-.314-6.2c.781-6.143-.153-13-5.478-15.851-4.814-2.568-9.96-5.945-16.013-6a43.109,43.109,0,0,0-15.8,2.955c-7.966,3.009-12,9.044-11.54,17.575.162,3.035.53,5.855-.512,8.945a6.8,6.8,0,0,0,2.748,8.172,2.819,2.819,0,0,1,1.123,1.446,26.254,26.254,0,0,0,9.654,14.405,34.063,34.063,0,0,0-3.467,1.446c-3.619,2.03-4.436,5.442-4.329,9.223.081,2.874-.216,5.7,3.844,6.745,3.08.8,3.987,4.293,2.6,6.942a5.67,5.67,0,0,1-7.912,2.353,5.249,5.249,0,0,1-1.814-7.625c.629-1.033,2.146-1.608,1.67-3.224-1.1-3.709-.7-7.463.1-11.765C71.6,64.283,65.324,72.922,64.192,84.983c-.44,4.652-.413,4.76,4.284,4.76q25.191.013,50.373.045c6.682,0,13.363-.036,20.045-.063,1.706-.009,3.206.108,3.377-2.47.736-10.858-8.63-25.6-19.434-29.87Zm-4.948-25.909a5.73,5.73,0,0,1-5.972,5.64,5.907,5.907,0,1,1,5.972-5.64Zm-5.047-12.3c.368,1.491.638,2.577.961,3.889-3.583.117-6.412,1.23-8.559,4.266-1.536,2.164-4.032,1.176-6.358-2.371,4.553-1.868,9.555-2.5,13.956-5.784ZM94.744,25.5c2.568.072,4.841,2.9,4.787,5.945a5.635,5.635,0,0,1-5.891,5.658A6.047,6.047,0,0,1,87.7,30.928c.09-3.179,3.143-5.532,7.041-5.424ZM96.828,57c.781-3.619-2.084-4.463-4.248-5.927-3.637-2.452-5.9-5.945-7.544-9.969-.952-2.326-.575-5.128-3.853-6.646-1.922-.889-1.608-4.32-.3-6.34,1.132-1.742,3.538-1.033,5.326-1.329,1.185-.2.476,1.383.26,2.128a7.647,7.647,0,0,0,1.769,7.858,6.991,6.991,0,0,0,7.373,2.173,8.132,8.132,0,0,0,5.64-6.269c.26-1.069-.422-2.856,1.751-2.73,2.066.117,1.374,1.8,1.617,2.91.934,4.347,5.065,7.185,9.133,6.215a8.089,8.089,0,0,0,5.721-9.555c-.3-1.2-.808-2.362-1.365-3.961,2.667.3,3.736,2.64,6.394,2.5,1.536-.09,1.159,3.027.952,4.76-.153,1.212-.476,2.847-2.272,2.362-1.509-.4-1.41.449-1.563,1.338-1.167,6.646-4.239,12.052-10.184,15.564a2.661,2.661,0,0,0-1.446,2.039c-.862,4.652-8.217,7.274-12.07,4.338C97.43,58.077,96.747,57.386,96.828,57ZM83.1,78.463c2.227,1.221,4.32.683,5.326-1.778.934-2.3-.1-3.781-2.622-4.239,1.257,1.087,2.577,2.173,1.509,3.978a2.4,2.4,0,0,1-2.919,1.239c-2.281-.745-1.922-2.586-1.895-4.436C80.8,75.167,80.69,77.143,83.1,78.463Z" transform="translate(-64.014 0.021)" fill="#ffa800"/>
</svg>
