<svg xmlns="http://www.w3.org/2000/svg" width="80.413" height="79.052" viewBox="0 0 80.413 79.052">
  <path id="hospital" d="M37.7,76.721H36.54a1.165,1.165,0,0,0-1.166,1.158v1.592a1.167,1.167,0,0,0,1.166,1.166H37.7a1.165,1.165,0,0,0,1.158-1.166V77.879A1.163,1.163,0,0,0,37.7,76.721Zm6.143,0h-1.15a1.16,1.16,0,0,0-1.166,1.158v1.592a1.162,1.162,0,0,0,1.166,1.166h1.15a1.167,1.167,0,0,0,1.166-1.166V77.879A1.165,1.165,0,0,0,43.841,76.721ZM76.07,8.5H4.311A4.272,4.272,0,0,0-.007,13.1L4.5,82.945A4.983,4.983,0,0,0,9.4,87.552H31.2l-1.246-12.56a4.094,4.094,0,0,1,4.157-4.583H46.583a4.089,4.089,0,0,1,4.157,4.583l-1.246,12.56H70.98a4.983,4.983,0,0,0,4.905-4.608l4.5-69.845A4.272,4.272,0,0,0,76.07,8.5ZM57.921,35.55a1.663,1.663,0,0,1,1.665-1.665h5.162a1.664,1.664,0,0,1,1.673,1.665v7.173A1.671,1.671,0,0,1,64.748,44.4H59.586a1.664,1.664,0,0,1-1.665-1.673V35.55Zm0,17.739a1.675,1.675,0,0,1,1.665-1.673h5.162a1.676,1.676,0,0,1,1.673,1.673V60.47a1.666,1.666,0,0,1-1.673,1.673H59.586a1.664,1.664,0,0,1-1.665-1.673ZM22.46,79.4A1.664,1.664,0,0,1,20.8,81.071H15.633A1.671,1.671,0,0,1,13.96,79.4V72.226a1.671,1.671,0,0,1,1.673-1.673H20.8a1.664,1.664,0,0,1,1.665,1.673Zm0-18.929A1.664,1.664,0,0,1,20.8,62.142H15.633A1.671,1.671,0,0,1,13.96,60.47V53.289a1.676,1.676,0,0,1,1.673-1.673H20.8a1.67,1.67,0,0,1,1.665,1.673Zm0-17.747A1.664,1.664,0,0,1,20.8,44.4H15.633a1.671,1.671,0,0,1-1.673-1.673V35.55a1.664,1.664,0,0,1,1.673-1.665H20.8A1.658,1.658,0,0,1,22.46,35.55ZM37.119,60.47a1.671,1.671,0,0,1-1.673,1.673H30.284a1.664,1.664,0,0,1-1.665-1.673V53.289a1.675,1.675,0,0,1,1.665-1.673h5.162a1.676,1.676,0,0,1,1.673,1.673Zm0-17.747A1.671,1.671,0,0,1,35.446,44.4H30.284a1.664,1.664,0,0,1-1.665-1.673V35.55a1.663,1.663,0,0,1,1.665-1.665h5.162a1.664,1.664,0,0,1,1.673,1.665Zm5.428-19.5V27.6a.523.523,0,0,1-.531.523H38.365a.523.523,0,0,1-.531-.523V23.223a.515.515,0,0,0-.523-.515H32.945a.522.522,0,0,1-.523-.523V18.527A.529.529,0,0,1,32.945,18h4.366a.517.517,0,0,0,.523-.523V13.108a.518.518,0,0,1,.531-.523h3.651a.523.523,0,0,1,.531.523v4.366a.51.51,0,0,0,.515.523h4.366a.525.525,0,0,1,.531.531v3.659a.529.529,0,0,1-.531.523H43.061A.513.513,0,0,0,42.547,23.223ZM51.762,60.47a1.671,1.671,0,0,1-1.673,1.673H44.927a1.671,1.671,0,0,1-1.673-1.673V53.289a1.676,1.676,0,0,1,1.673-1.673h5.162a1.676,1.676,0,0,1,1.673,1.673Zm0-17.747A1.671,1.671,0,0,1,50.089,44.4H44.927a1.671,1.671,0,0,1-1.673-1.673V35.55a1.664,1.664,0,0,1,1.673-1.665h5.162a1.664,1.664,0,0,1,1.673,1.665ZM66.429,79.4a1.671,1.671,0,0,1-1.673,1.673H59.594A1.671,1.671,0,0,1,57.921,79.4V72.226a1.671,1.671,0,0,1,1.673-1.673h5.162a1.671,1.671,0,0,1,1.673,1.673Z" transform="translate(0.016 -8.5)" fill="#00d0ff"/>
</svg>
