<svg xmlns="http://www.w3.org/2000/svg" width="89.503" height="79.978" viewBox="0 0 89.503 79.978">
  <path id="id-card" d="M104.741,144.9h-2.189a2,2,0,0,1-2.035-1.956,1.447,1.447,0,0,1,.47-1.066,14.135,14.135,0,0,0,3.1-4.46.905.905,0,0,0,.511.186c1.227,0,2.659-2.582,2.659-4.352s-.174-3.178-1.391-3.178a2.2,2.2,0,0,0-.46.068c-.082-4.772-1.35-10.738-8.98-10.738-7.957,0-8.878,5.946-8.98,10.718a1.758,1.758,0,0,0-.327-.039c-1.227,0-1.4,1.418-1.4,3.178s1.432,4.352,2.659,4.352a.86.86,0,0,0,.43-.117,14.012,14.012,0,0,0,3.068,4.4,1.457,1.457,0,0,1,.47,1.066,2.008,2.008,0,0,1-2.046,1.956H88.121a8.238,8.238,0,0,0-8.438,8.049v2.23a2.612,2.612,0,0,0,2.659,2.552h28.147a2.612,2.612,0,0,0,2.659-2.552v-2.23A8.228,8.228,0,0,0,104.741,144.9Zm28.085-22.121H109.21a16.067,16.067,0,0,1,1.381,5.408,3.44,3.44,0,0,1,1.2,1.35h21.028a1.923,1.923,0,0,0,1.964-1.878V124.68a1.9,1.9,0,0,0-1.953-1.9Zm0,12.332H112.278c-.563,2.015-1.943,4.127-3.835,4.684l-.184.293v1.79h24.557A1.919,1.919,0,0,0,134.79,140v-3A1.918,1.918,0,0,0,132.826,135.115Zm0,12.322H116.779a9.971,9.971,0,0,1,1.688,5.525V154.2h14.35a1.919,1.919,0,0,0,1.974-1.878v-2.983A1.928,1.928,0,0,0,132.826,147.437Zm7.037-45.26H119.888a.312.312,0,0,1-.317-.3V91.7a.312.312,0,0,0-.317-.3H96.773a.312.312,0,0,0-.317.3v10.171a.306.306,0,0,1-.317.3H74.62A11.866,11.866,0,0,0,62.5,113.786V159.8a11.855,11.855,0,0,0,12.12,11.579h65.253A11.864,11.864,0,0,0,152,159.8V113.776A11.876,11.876,0,0,0,139.863,102.177Zm-37.7-5a.312.312,0,0,1,.317-.3h11.056a.305.305,0,0,1,.317.3V107.7a.312.312,0,0,1-.317.3H102.49a.312.312,0,0,1-.317-.3c-.01.01-.01-10.523-.01-10.523Zm44.1,62.6a6.265,6.265,0,0,1-6.382,6.122H74.62a6.267,6.267,0,0,1-6.392-6.122v-46a6.261,6.261,0,0,1,6.392-6.122H96.129a.312.312,0,0,1,.317.3v5.232a.312.312,0,0,0,.317.3h22.5a.312.312,0,0,0,.317-.3v-5.232a.312.312,0,0,1,.317-.3h19.975a6.264,6.264,0,0,1,6.4,6.122Z" transform="translate(-62.5 -91.4)" fill="#3246d3"/>
</svg>
