<svg xmlns="http://www.w3.org/2000/svg" width="95.35" height="85.087" viewBox="0 0 95.35 85.087">
  <path id="svg" d="M49.859,139.073c-8.419.019-15.217-1.688-21.549-5.254-7.485-4.2-9.907-9.42-8.372-18.526A36.005,36.005,0,0,1,34.594,91.713c1.22-.906,1.916-.744,2.88.305,2.87,3.156,5.873,6.188,8.734,9.344.992,1.1,1.535,1.278,2.546-.019,2.47-3.156,5.149-6.14,7.647-9.277.83-1.049,1.449-1.325,2.679-.553,9.725,6.15,15.17,14.931,16.972,26.268,1.831,11.451-5.406,15.751-13.5,18.907A34.207,34.207,0,0,1,49.859,139.073ZM47.246,90.922a15.434,15.434,0,1,1,15.6-15.666,15.593,15.593,0,0,1-15.6,15.666Zm19.317-8.534c1.821,1.916,3.585,3.719,5.263,5.587.744.83,1.173.858,1.9-.057,1.926-2.441,4-4.758,5.931-7.17.725-.915,1.278-1.154,2.374-.439,8.772,5.7,13.091,13.844,13.311,24.209.067,3.223-1.764,5.606-4.176,7.523a25.84,25.84,0,0,1-9.01,4.357c-1.106.315-1.5-.067-1.678-1.106a39.833,39.833,0,0,0-16.381-26.24c-.543-.391-1.1-.715-.458-1.506a28.921,28.921,0,0,0,2.927-5.158Zm-38.559-.563a30.458,30.458,0,0,0,2.956,5.463c.744.934-.162,1.211-.648,1.611a40.925,40.925,0,0,0-14.15,21.215,28.228,28.228,0,0,0-1.03,5.111c-.086.82-.277,1.344-1.325,1-4.281-1.373-8.3-3.166-11.375-6.627-3.042-3.423-2.67-7.409-1.907-11.385A28.278,28.278,0,0,1,11.548,80.577c1.154-.877,1.859-.81,2.832.305,2.126,2.431,4.453,4.672,6.6,7.084.858.963,1.287.83,2.012-.1,1.545-1.974,3.2-3.871,5.015-6.036ZM72.933,53.994a11.468,11.468,0,0,1,10.841,7.094A11.221,11.221,0,0,1,81.819,73.9a11.552,11.552,0,0,1-12.462,3.623c-1.2-.324-1.812-.782-1.793-2.212a18.938,18.938,0,0,0-4.939-13.091,1.648,1.648,0,0,1-.2-2.336,11.99,11.99,0,0,1,10.507-5.892ZM9.975,65.912A12.059,12.059,0,0,1,32.01,59.267c.8,1.173,1.039,2.012-.114,3.309a18.625,18.625,0,0,0-4.71,12.758,1.9,1.9,0,0,1-1.592,2.155A12.076,12.076,0,0,1,9.975,65.912Z" transform="translate(0.009 -53.993)" fill="#ee3158"/>
</svg>
