<svg xmlns="http://www.w3.org/2000/svg" width="90.431" height="56.217" viewBox="0 0 90.431 56.217">
  <path id="workers-group" d="M122.276,274.845a2.633,2.633,0,0,0-1.209-1.8c-3.535-2.439-7.525-3.824-11.566-5.116a1.566,1.566,0,0,0-1.985.631c-4.465,5.354-10.078,7.938-17.117,6.8a18.1,18.1,0,0,1-11.483-7.122c-.31-.382-.527-.858-1.2-.651-4.465,1.344-8.879,2.8-12.775,5.457a2.693,2.693,0,0,0-1.189,1.819c-.32,1.643-.651,3.3-1.127,4.9-.31,1.075-.062,1.437,1.023,1.643A159.653,159.653,0,0,0,96.9,284.148c2.966-.062,7.618-.289,12.259-.765q6.822-.7,13.561-2.016c.786-.155,1-.475.8-1.271-.475-1.726-.91-3.483-1.24-5.251ZM78.947,250.028c1.333-.093,2.884-.4,3.969.134,3.163,1.561,6.5,1.664,9.861,1.747,3.328.072,6.7.093,9.85-1.044a11.65,11.65,0,0,1,4.258-.868c3.318.052,3.587-.31,3.1-3.669l-.01-.145c-.062-.5-.3-.9-.837-.858-.879.083-.889-.424-.941-1.085a17.108,17.108,0,0,0-5.623-11.618c-1.24-1.137-3.07-1.654-3.68-3.483a.654.654,0,0,0-.837-.424c-.32.145-.186.517-.217.8-.217,2.419-.434,4.837-.61,7.266-.062.858-.227,1.726-1.23,1.716-1.2-.021-1.116-1.023-1.085-1.881.083-2.481.1-4.961.289-7.432.114-1.55-.889-1.158-1.716-1.22-.889-.062-1.488,0-1.416,1.22.155,2.677.155,5.354.207,8.031.01.651-.165,1.23-.93,1.282s-1.178-.413-1.251-1.168c-.114-1.137-.2-2.274-.3-3.411-.155-1.757-.32-3.525-.5-5.364-1.116.672-1.168.651-1.53,1.54a1.935,1.935,0,0,1-.837.972c-4.941,3.039-7.4,7.556-7.855,13.251-.052.62-.093,1.054-.868,1-.713-.041-.941.413-.93,1.054a17.223,17.223,0,0,1-.01,1.933c-.124,1.261.32,1.819,1.674,1.726Zm20.362-16.2a13.969,13.969,0,0,1,5.964,10.843c.052.7-.31.951-.879,1.127a29.9,29.9,0,0,1-5.964,1.116c-.517.052-.755-.041-.682-.6C98.255,242.256,98.761,238.183,99.309,233.832Zm-11.328.269c.506,4.041,1.013,8.041,1.519,12.042.083.651-.1.858-.806.765a29.281,29.281,0,0,1-5.664-1.065c-.444-.145-.941-.2-1-.879-.269-3.39,2.419-9.323,5.954-10.863ZM80.4,251.93c-.92.124-2.4-.744-2.47,1.158a5.845,5.845,0,0,0,2.233,5.251,4.718,4.718,0,0,1,1.674,2.295c2.14,5.488,6.7,8.868,11.856,8.858a11.344,11.344,0,0,0,3.37-.517c4.31-1.5,6.9-4.641,8.527-8.744.227-.589.331-1.168,1-1.55a5.648,5.648,0,0,0,2.7-4.558c.227-1.933-.021-2.171-1.933-2.243-.93-.031-1.4.031-1.2,1.24.217,1.313.207,2.739-1.778,2.946-.734.072-1.044.817-1.209,1.54a13.7,13.7,0,0,1-1.468,3.711c-2.625,4.6-7.525,6.357-11.887,4.145-3.122-1.581-4.786-4.352-5.654-7.649-.2-.744-.372-1.633-1.189-1.716-1.933-.2-1.912-1.509-1.912-2.894C81.066,252.674,81.634,251.754,80.4,251.93Zm71.66,17.747a1.783,1.783,0,0,0-.817-1.22,29.051,29.051,0,0,0-7.855-3.473,1.072,1.072,0,0,0-1.354.434c-3.028,3.638-6.843,5.385-11.618,4.62a12.252,12.252,0,0,1-7.793-4.837c-.207-.258-.362-.579-.817-.444a43.738,43.738,0,0,0-5.478,1.974,36.34,36.34,0,0,1,8.889,4.227,2.611,2.611,0,0,1,1.209,1.8c.2,1.034.434,2.067.682,3.091,2.481.114,5.023.176,7.711.145,2.016-.041,5.168-.2,8.321-.517,3.091-.31,6.16-.775,9.2-1.364.537-.1.682-.32.537-.858C152.581,272.075,152.292,270.887,152.065,269.677ZM122.658,252.84a5.735,5.735,0,0,1,2.7.093,15.423,15.423,0,0,0,6.687,1.178,18.447,18.447,0,0,0,6.687-.7,7.94,7.94,0,0,1,2.884-.589c2.253.031,2.429-.207,2.109-2.491a.388.388,0,0,0-.01-.1c-.041-.341-.2-.61-.568-.579-.6.052-.6-.289-.641-.734a11.586,11.586,0,0,0-3.814-7.886c-.848-.775-2.078-1.116-2.491-2.367-.062-.165-.3-.413-.568-.289-.217.1-.124.351-.145.537-.145,1.643-.289,3.287-.413,4.93-.041.579-.155,1.168-.837,1.158-.817-.01-.755-.693-.734-1.282.062-1.685.072-3.37.2-5.044.083-1.054-.6-.786-1.168-.827-.61-.041-1,0-.961.827.1,1.809.1,3.638.145,5.457.01.444-.114.837-.63.868s-.8-.279-.858-.8l-.207-2.315c-.1-1.2-.217-2.388-.331-3.638-.755.455-.8.444-1.034,1.044a1.322,1.322,0,0,1-.568.661,10.908,10.908,0,0,0-5.323,8.992c-.031.424-.062.713-.589.682-.486-.031-.631.279-.631.713a11.125,11.125,0,0,1-.01,1.313c-.093.879.207,1.251,1.127,1.189Zm13.819-10.987a9.507,9.507,0,0,1,4.052,7.359c.031.475-.217.651-.6.765a20.784,20.784,0,0,1-4.041.755c-.351.031-.517-.031-.465-.4.341-2.76.682-5.519,1.054-8.476Zm-7.69.176q.512,4.109,1.034,8.166c.052.444-.072.579-.548.517a20.188,20.188,0,0,1-3.845-.724c-.3-.1-.641-.134-.672-.6C124.57,247.1,126.39,243.082,128.788,242.028Zm-5.137,12.1c-.62.093-1.623-.506-1.674.786a3.986,3.986,0,0,0,1.519,3.566,3.2,3.2,0,0,1,1.137,1.561c1.447,3.721,4.548,6.016,8.041,6.016a7.8,7.8,0,0,0,2.284-.351,9.48,9.48,0,0,0,5.788-5.933c.155-.393.227-.8.672-1.054a3.818,3.818,0,0,0,1.829-3.09c.155-1.313-.021-1.478-1.313-1.519-.63-.021-.951.021-.806.848.145.889.145,1.86-1.209,1.995-.5.052-.7.558-.817,1.044a9.319,9.319,0,0,1-1,2.522c-1.778,3.121-5.106,4.31-8.062,2.811a7.593,7.593,0,0,1-3.835-5.189c-.134-.506-.248-1.106-.806-1.168-1.313-.134-1.292-1.023-1.292-1.964-.01-.372.382-1-.455-.879Z" transform="translate(-62.503 -227.945)" fill="#52627a"/>
</svg>
