<svg id="blood-donation-icon_1_" data-name="blood-donation-icon (1)" xmlns="http://www.w3.org/2000/svg" width="187.354" height="179.406" viewBox="0 0 187.354 179.406">
  <path id="Path_6" data-name="Path 6" d="M42.068,126.309V68.678H67.98c11,1.966,21.949,7.972,32.984,14.846H121.1c9.145.549,13.886,9.785,5.03,15.852-7.057,5.182-16.385,4.893-25.912,4.024-6.585-.32-6.874,8.536,0,8.566,2.378.183,4.969-.381,7.24-.381,11.919,0,21.72-2.286,27.741-11.706l3.048-7.042,29.966-14.846c14.983-4.923,25.622,10.746,14.587,21.659A392.335,392.335,0,0,1,116.1,138.9c-16.522,10.06-33.06,9.709-49.567,0l-24.387-12.59ZM0,63.13H34.264V132.1H0Z" transform="translate(0 33.093)" fill="#52627a" fill-rule="evenodd"/>
  <path id="Path_7" data-name="Path 7" d="M90.787,0a99.406,99.406,0,0,0,7.24,21.629A85.066,85.066,0,0,0,110.4,39.066l2.469,2.652c7.24,8.063,10.852,16.157,10.852,24.2a31.17,31.17,0,0,1-9.663,22.97,32.786,32.786,0,0,1-46.336,0A31.125,31.125,0,0,1,58,65.922c0-8,3.582-16.141,10.822-24.2l2.393-2.652A86.256,86.256,0,0,0,83.592,21.629,98.818,98.818,0,0,0,90.787,0ZM69.036,61.136a3.323,3.323,0,1,1,6.615-.594A32.175,32.175,0,0,0,78.9,72.552a21.338,21.338,0,0,0,8.292,8.581,3.33,3.33,0,1,1-3.368,5.746A27.694,27.694,0,0,1,73,75.677a38.517,38.517,0,0,1-3.963-14.526Z" transform="translate(30.404)" fill="#d8453e" fill-rule="evenodd"/>
</svg>
