<svg xmlns="http://www.w3.org/2000/svg" width="189.557" height="174.009" viewBox="0 0 189.557 174.009">
  <g id="computer-report-icon" transform="translate(-0.222 4.817)">
    <path id="Path_8" data-name="Path 8" d="M5.152,0H184.4a5.459,5.459,0,0,1,5.152,5.7V137.158a5.459,5.459,0,0,1-5.152,5.7H5.152A5.459,5.459,0,0,1,0,137.158V5.7A5.459,5.459,0,0,1,5.152,0ZM141.273,47.763l16.2.051a19,19,0,0,1-4.828,12.722,17.311,17.311,0,0,1-2.376,2.135l-8.993-14.908ZM48.022,33.675h4.936a.508.508,0,0,1,.478.529V53.671a.508.508,0,0,1-.478.529H48.022a.508.508,0,0,1-.478-.529V34.2a.508.508,0,0,1,.478-.529ZM25.685,27.1h4.936a.508.508,0,0,1,.478.529V53.688a.508.508,0,0,1-.478.529H25.685a.508.508,0,0,1-.478-.529V27.63a.508.508,0,0,1,.478-.529Zm11.169-3.706h4.936a.508.508,0,0,1,.478.529V53.688a.508.508,0,0,1-.478.529H36.853a.508.508,0,0,1-.478-.529V23.924a.508.508,0,0,1,.478-.529ZM25.978,104.8a2.068,2.068,0,0,1-1.944-2.186,2.089,2.089,0,0,1,1.944-2.186H163.9a2.068,2.068,0,0,1,1.944,2.186A2.089,2.089,0,0,1,163.9,104.8Zm-.324-15.881a2.068,2.068,0,0,1-1.944-2.186,2.089,2.089,0,0,1,1.944-2.186h55.3A2.068,2.068,0,0,1,82.9,86.731a2.089,2.089,0,0,1-1.944,2.186Zm62.893,0A2.068,2.068,0,0,1,86.6,86.731a2.089,2.089,0,0,1,1.944-2.186H163.9a2.068,2.068,0,0,1,1.944,2.186,2.089,2.089,0,0,1-1.944,2.186ZM25.654,74.727a2.068,2.068,0,0,1-1.944-2.186,2.089,2.089,0,0,1,1.944-2.186H109.2a2.068,2.068,0,0,1,1.944,2.186,2.089,2.089,0,0,1-1.944,2.186ZM139.607,44.194l-.864-19.177a.663.663,0,0,1,.586-.717c.093,0,.216-.017.355-.017h.355a17.022,17.022,0,0,1,12.387,5.26,20.709,20.709,0,0,1,5.754,13.234.668.668,0,0,1-.571.734l-17.324,1.366a.644.644,0,0,1-.663-.632.067.067,0,0,1-.015-.051Zm.4-18.545.8,17.811L156.884,42.2a19.146,19.146,0,0,0-5.307-11.629,15.9,15.9,0,0,0-11.539-4.9l-.031-.017Zm-2.345,21.277,8.685,16.65a16.056,16.056,0,0,1-8.685,2.579c-9.6,0-17.37-8.607-17.37-19.228,0-9.546,6.325-17.64,14.855-19.023l2.514,19.023ZM71.408,150.734h46.741c.123,8.948,3.455,16.974,12.48,23.275h-71.7c7.219-5.789,12.511-12.824,12.48-23.275Zm23.371-27.083c3.656,0,6.618,3.279,6.618,7.326s-2.962,7.326-6.618,7.326-6.618-3.279-6.618-7.326,2.962-7.326,6.618-7.326ZM15.5,10.741H174.069a4.822,4.822,0,0,1,4.551,5.038V114a4.832,4.832,0,0,1-4.551,5.038H15.5A4.832,4.832,0,0,1,10.953,114V15.779A4.812,4.812,0,0,1,15.5,10.741Z" transform="translate(0.222 -4.817)" fill="#00d0ff" fill-rule="evenodd"/>
  </g>
</svg>
