<svg xmlns="http://www.w3.org/2000/svg" width="157.25" height="183.201" viewBox="0 0 157.25 183.201">
  <path id="copy-invert" d="M195.254,54.487c-7.31-7.127-14.565-14.327-21.82-21.527a7.88,7.88,0,0,0-5.881-2.308q-44.96.027-89.92.018C73.18,30.669,71,32.9,71,37.357V176.322c0,4.91,1.887,6.852,6.761,6.87,8.1.018,16.214,0,24.312,0h88.674c5.13,0,6.889-1.759,6.889-6.852q0-57.931.037-115.881A7.735,7.735,0,0,0,195.254,54.487ZM102.018,77.7q12.449,0,24.917-.018c1.5,0,2.675.55,2.712,2.107.037,1.7-1.173,2.253-2.766,2.235-4.214-.037-8.446-.018-12.66-.018-4.086,0-8.171-.018-12.257.018-1.557.018-2.8-.348-2.785-2.162s1.356-2.162,2.84-2.162Zm67,68.045a2.107,2.107,0,0,1-2.29,1.631c-3.334.037-6.669.037-10,.037l-53.736-.018c-.55,0-1.1.018-1.631-.018a2.021,2.021,0,0,1-2.162-2.2c.018-1.429.9-2.07,2.254-2.089,3.738-.037,7.493-.037,11.231-.037h21.656v.018h31.457a4.119,4.119,0,0,1,2.382.348,2.02,2.02,0,0,1,.843,2.327ZM166.6,125.738c-4.287.055-8.574.037-12.861.037H133.915v-.037H102.238c-1.557,0-2.95-.2-3.1-2.125-.11-1.484,1.026-2.235,3.188-2.235h63.556c1.356,0,2.675.073,3.133,1.649C169.458,124.565,168.432,125.719,166.6,125.738Zm.128-21.784c-5.515.037-11.029.018-16.544.018H103.41c-.55,0-1.1.055-1.631.018-1.429-.073-2.62-.513-2.6-2.2.018-1.7,1.191-2.089,2.657-2.089l22.059-.018h10.425V99.7H166.2c1.044,0,2.07.018,2.675,1.1.843,1.5-.183,3.133-2.144,3.151ZM228.213,87.74q0-28.828.037-57.638a8.311,8.311,0,0,0-2.583-6.376c-7.035-6.834-14.052-13.686-20.941-20.666A9.73,9.73,0,0,0,197.287,0q-40.068.082-80.137.037c-3.133,0-6.266-.073-9.4,0q-6.1.137-6.211,6.247c-.055,3.463.055,6.944.018,10.425-.018,1.118.311,1.594,1.5,1.539,1.979-.073,3.957-.018,5.918-.018,3.536,0,3.481,0,3.554-3.536.073-3.921-.751-3.646,3.756-3.664q25.64-.027,51.3-.018c8.721,0,17.442.037,26.163-.018,1.777-.018,2.473.44,2.418,2.4-.147,4.837-.092,9.674-.055,14.51.018,2.858,1.173,3.921,3.976,3.939,4.965,0,9.948.11,14.913,0,1.869-.055,2.272.586,2.254,2.327-.073,11.506-.037,23.03-.037,34.535q-.027,33.912-.037,67.843c0,4.928.037,4.928-4.983,4.965a2.96,2.96,0,0,1-.4,0c-1.118-.092-1.631.366-1.612,1.521q.055,3.985,0,7.97c-.018,1.136.458,1.576,1.576,1.576,3.683-.037,7.365.073,11.029-.073,3.261-.147,5.057-2.034,5.368-5.313a18.821,18.821,0,0,0,.037-2.034q.027-28.718.018-57.418Z" transform="translate(-71 0)" fill="#1dbfc1"/>
</svg>
