<svg xmlns="http://www.w3.org/2000/svg" width="163.338" height="187.353" viewBox="0 0 163.338 187.353">
  <path id="doctor-alt" d="M186.725,119.736c3.5,9.948.206,18.079-5.658,25.592-1.049,1.349-3.2,2.679-1.536,4.8,5.883,7.494,6.595,16.712,8.937,25.423.768,2.866,2.829,5.264-.131,7.85-1.817,1.592-3.841,1.948-5.845.412-3-2.323-1.761-4.834-.768-7.831,5.115-15.569-9.255-31.981-25.142-28.814-4.122.824-8.468,1.311-11.2,5.414-1.33,1.967-3.6,2.211-5.733.824a4.8,4.8,0,0,1-2.379-4.759c.206-2.08,1.424-4.084,3.335-3.953,10.267.674,20.44-5.564,30.707-.543,3.26,1.592,4.815-.225,6.595-2.492,9.648-12.29,7.044-22.725-8.712-30.819a52.574,52.574,0,0,0,19-28.159c.412-1.518.787-2.96,2.417-3.916,8.3-4.834,8.805-12.552,5.976-20.271-1.686-4.59-1.236-8.393-.656-12.927,1.63-12.815-.319-27.109-11.428-33.067C174.453,7.14,163.718.1,151.091-.017a89.931,89.931,0,0,0-32.955,6.164c-16.618,6.276-25.03,18.866-24.074,36.664.337,6.332,1.105,12.215-1.068,18.66-2.061,6.108-.618,12.8,5.733,17.049a5.88,5.88,0,0,1,2.342,3.016c3.166,12.047,9.723,21.9,20.14,30.051a71.065,71.065,0,0,0-7.232,3.016c-7.55,4.234-9.255,11.353-9.03,19.241.169,6-.45,11.9,8.019,14.07,6.426,1.667,8.318,8.955,5.414,14.482a11.828,11.828,0,0,1-16.505,4.909c-5.845-3.335-7.382-10.042-3.784-15.906,1.311-2.154,4.478-3.354,3.485-6.726-2.286-7.738-1.461-15.569.206-24.543-21.939,13.995-35.034,32.018-37.395,57.179-.918,9.7-.862,9.93,8.937,9.93q52.551.028,105.084.094c13.939,0,27.878-.075,41.816-.131,3.56-.019,6.688.225,7.044-5.152,1.536-22.651-18-53.413-40.542-62.312ZM176.4,65.686a11.953,11.953,0,0,1-12.459,11.766A12.323,12.323,0,1,1,176.4,65.686ZM165.873,40.019c.768,3.11,1.33,5.377,2,8.112-7.475.244-13.377,2.567-17.854,8.9-3.2,4.515-8.412,2.454-13.264-4.946C146.257,48.188,156.693,46.876,165.873,40.019ZM128.122,53.227c5.358.15,10.1,6.051,9.986,12.4a11.755,11.755,0,0,1-12.29,11.8,12.615,12.615,0,0,1-12.384-12.89c.187-6.632,6.557-11.541,14.688-11.316Zm4.346,65.7c1.63-7.55-4.346-9.311-8.862-12.365-7.588-5.115-12.309-12.4-15.737-20.8-1.986-4.852-1.2-10.7-8.037-13.864-4.009-1.855-3.354-9.012-.618-13.227,2.361-3.635,7.382-2.155,11.11-2.773,2.473-.412.993,2.885.543,4.44-1.8,6.183-.693,11.784,3.691,16.393,4.14,4.365,9.5,6.332,15.381,4.534C136.272,79.325,140.094,74.7,141.7,68.2c.543-2.229-.881-5.958,3.653-5.7,4.309.244,2.866,3.747,3.372,6.07,1.948,9.068,10.566,14.988,19.053,12.965,8.374-2,14.051-11.391,11.934-19.934-.618-2.51-1.686-4.927-2.848-8.262,5.564.618,7.794,5.508,13.339,5.208,3.2-.187,2.417,6.314,1.986,9.93-.319,2.529-.993,5.939-4.74,4.927-3.147-.843-2.941.937-3.26,2.792-2.436,13.864-8.843,25.142-21.245,32.468a5.552,5.552,0,0,0-3.016,4.253c-1.8,9.7-17.142,15.175-25.18,9.049C133.724,121.179,132.3,119.736,132.468,118.931Zm-28.646,44.776c4.646,2.548,9.012,1.424,11.11-3.71,1.948-4.8-.206-7.887-5.471-8.843,2.623,2.267,5.377,4.534,3.147,8.3-1.293,2.173-3.447,3.447-6.089,2.585-4.759-1.555-4.009-5.4-3.953-9.255C99.027,156.832,98.8,160.953,103.823,163.707Z" transform="translate(-64.014 0.021)" fill="#ffa800"/>
</svg>
