<svg xmlns="http://www.w3.org/2000/svg" width="192.295" height="143.367" viewBox="0 0 192.295 143.367">
  <g id="Group_16" data-name="Group 16" transform="translate(-45.073 -104.123)">
    <path id="Path_4" data-name="Path 4" d="M552.014,113.238c-5.7,3.9-4.928,16.391-4.371,18.854a18.136,18.136,0,0,1,.344,2.071,15.669,15.669,0,0,1-.034,3.982,36.077,36.077,0,0,0,7.292,23.04c.181.243.369.477.566.7.02.055.041.111.064.169,2.244,5.464,4.586,4.947,1.5,11.688-2.562,5.59-6.847,3.879-18.478,6.973-2.4.637-5.1,1.477-8.166,2.628-8.5,2.229-16.8,43-16.8,43H626.7s-7.022-39.2-15.8-42.81a85.724,85.724,0,0,0-15.5-4.267c-6.4-1.17-9.4-1.3-11.333-5.524-3.089-6.741-.749-6.224,1.5-11.688.035-.086.065-.169.091-.248a26.926,26.926,0,0,0,1.51-2.41,29.227,29.227,0,0,0,4.941-13.815c.334-5.13.745-9.87,1.33-13.327.149-.882,1.553-10.347-1.809-16.357-1.244-2.225-11.189-8.228-20.911-8.727q-.516-.027-1.029-.026c-7.767,0-15.191,4.391-17.677,6.094" transform="translate(-468.856 -3.021)" fill="#ee3158"/>
    <path id="Path_12" data-name="Path 12" d="M552.014,113.238c-5.7,3.9-4.928,16.391-4.371,18.854a18.136,18.136,0,0,1,.344,2.071,15.669,15.669,0,0,1-.034,3.982,36.077,36.077,0,0,0,7.292,23.04c.181.243.369.477.566.7.02.055.041.111.064.169,2.244,5.464,4.586,4.947,1.5,11.688-2.562,5.59-6.847,3.879-18.478,6.973-2.4.637-5.1,1.477-8.166,2.628-8.5,2.229-16.8,43-16.8,43H626.7s-7.022-39.2-15.8-42.81a85.724,85.724,0,0,0-15.5-4.267c-6.4-1.17-9.4-1.3-11.333-5.524-3.089-6.741-.749-6.224,1.5-11.688.035-.086.065-.169.091-.248a26.926,26.926,0,0,0,1.51-2.41,29.227,29.227,0,0,0,4.941-13.815c.334-5.13.745-9.87,1.33-13.327.149-.882,1.553-10.347-1.809-16.357-1.244-2.225-11.189-8.228-20.911-8.727q-.516-.027-1.029-.026c-7.767,0-15.191,4.391-17.677,6.094" transform="translate(-389.336 2.634)" fill="#ee3158"/>
    <path id="Path_10" data-name="Path 10" d="M553.99,113.554c-6,4.1-5.184,17.241-4.6,19.832a19.079,19.079,0,0,1,.362,2.178,16.5,16.5,0,0,1-.036,4.188,37.945,37.945,0,0,0,7.669,24.235q.285.384.6.738c.021.058.043.117.067.177,2.361,5.748,4.824,5.2,1.574,12.294-2.7,5.88-7.2,4.08-19.436,7.334-2.52.67-5.364,1.554-8.59,2.764-8.945,2.345-17.67,45.231-17.67,45.231H632.553s-7.386-41.23-16.619-45.03a90.166,90.166,0,0,0-16.3-4.488c-6.728-1.231-9.882-1.364-11.92-5.811-3.25-7.091-.788-6.547,1.574-12.294.037-.091.068-.177.1-.261a28.331,28.331,0,0,0,1.588-2.536,30.741,30.741,0,0,0,5.2-14.531c.352-5.4.783-10.382,1.4-14.018.157-.928,1.634-10.883-1.9-17.206-1.309-2.34-11.769-8.654-22-9.18q-.542-.028-1.082-.028c-8.169,0-15.979,4.619-18.594,6.41" transform="translate(-434.55 14.964)" fill="#fff"/>
    <path id="Path_11" data-name="Path 11" d="M552.014,113.238c-5.7,3.9-4.928,16.391-4.371,18.854a18.136,18.136,0,0,1,.344,2.071,15.669,15.669,0,0,1-.034,3.982,36.077,36.077,0,0,0,7.292,23.04c.181.243.369.477.566.7.02.055.041.111.064.169,2.244,5.464,4.586,4.947,1.5,11.688-2.562,5.59-6.847,3.879-18.478,6.973-2.4.637-5.1,1.477-8.166,2.628-8.5,2.229-16.8,43-16.8,43H626.7s-7.022-39.2-15.8-42.81a85.724,85.724,0,0,0-15.5-4.267c-6.4-1.17-9.4-1.3-11.333-5.524-3.089-6.741-.749-6.224,1.5-11.688.035-.086.065-.169.091-.248a26.926,26.926,0,0,0,1.51-2.41,29.227,29.227,0,0,0,4.941-13.815c.334-5.13.745-9.87,1.33-13.327.149-.882,1.553-10.347-1.809-16.357-1.244-2.225-11.189-8.228-20.911-8.727q-.516-.027-1.029-.026c-7.767,0-15.191,4.391-17.677,6.094" transform="translate(-431.626 20.118)" fill="#ee3158"/>
  </g>
</svg>
