<svg xmlns="http://www.w3.org/2000/svg" width="180.144" height="177.095" viewBox="0 0 180.144 177.095">
  <path id="hospital" d="M84.472,161.331H81.878a2.61,2.61,0,0,0-2.612,2.594v3.567a2.614,2.614,0,0,0,2.612,2.612h2.594a2.61,2.61,0,0,0,2.594-2.612v-3.567A2.606,2.606,0,0,0,84.472,161.331Zm13.763,0H95.659a2.6,2.6,0,0,0-2.612,2.594v3.567a2.6,2.6,0,0,0,2.612,2.612h2.576a2.614,2.614,0,0,0,2.612-2.612v-3.567A2.61,2.61,0,0,0,98.235,161.331ZM170.435,8.5H9.678A9.571,9.571,0,0,0,0,18.8L10.092,175.273A11.162,11.162,0,0,0,21.081,185.6H69.917l-2.792-28.138a9.17,9.17,0,0,1,9.313-10.268h27.94a9.161,9.161,0,0,1,9.313,10.268L110.9,185.6h48.133a11.163,11.163,0,0,0,10.989-10.322L180.108,18.8A9.571,9.571,0,0,0,170.435,8.5ZM129.777,69.1a3.725,3.725,0,0,1,3.729-3.729h11.565a3.729,3.729,0,0,1,3.747,3.729V85.167a3.744,3.744,0,0,1-3.747,3.747H133.506a3.729,3.729,0,0,1-3.729-3.747Zm0,39.739a3.752,3.752,0,0,1,3.729-3.747h11.565a3.756,3.756,0,0,1,3.747,3.747v16.086a3.733,3.733,0,0,1-3.747,3.747H133.506a3.729,3.729,0,0,1-3.729-3.747ZM50.336,167.329a3.729,3.729,0,0,1-3.729,3.747H35.042a3.744,3.744,0,0,1-3.747-3.747V151.261a3.744,3.744,0,0,1,3.747-3.747H46.607a3.729,3.729,0,0,1,3.729,3.747Zm0-42.4a3.729,3.729,0,0,1-3.729,3.747H35.042a3.744,3.744,0,0,1-3.747-3.747V108.838a3.756,3.756,0,0,1,3.747-3.747H46.607a3.74,3.74,0,0,1,3.729,3.747Zm0-39.757a3.729,3.729,0,0,1-3.729,3.747H35.042a3.744,3.744,0,0,1-3.747-3.747V69.1a3.729,3.729,0,0,1,3.747-3.729H46.607A3.713,3.713,0,0,1,50.336,69.1Zm32.839,39.757a3.744,3.744,0,0,1-3.747,3.747H67.863a3.729,3.729,0,0,1-3.729-3.747V108.838a3.752,3.752,0,0,1,3.729-3.747H79.428a3.756,3.756,0,0,1,3.747,3.747Zm0-39.757a3.744,3.744,0,0,1-3.747,3.747H67.863a3.729,3.729,0,0,1-3.729-3.747V69.1a3.725,3.725,0,0,1,3.729-3.729H79.428A3.729,3.729,0,0,1,83.175,69.1ZM95.334,41.484v9.8a1.173,1.173,0,0,1-1.189,1.171H85.967a1.173,1.173,0,0,1-1.189-1.171v-9.8a1.153,1.153,0,0,0-1.171-1.153H73.826a1.168,1.168,0,0,1-1.171-1.171v-8.2a1.184,1.184,0,0,1,1.171-1.189h9.782A1.157,1.157,0,0,0,84.778,28.6V18.822a1.161,1.161,0,0,1,1.189-1.171h8.178a1.172,1.172,0,0,1,1.189,1.171V28.6a1.142,1.142,0,0,0,1.153,1.171h9.782a1.176,1.176,0,0,1,1.189,1.189v8.2a1.184,1.184,0,0,1-1.189,1.171H96.487A1.149,1.149,0,0,0,95.334,41.484Zm20.644,83.441a3.744,3.744,0,0,1-3.747,3.747H100.667a3.744,3.744,0,0,1-3.747-3.747V108.838a3.756,3.756,0,0,1,3.747-3.747h11.565a3.756,3.756,0,0,1,3.747,3.747Zm0-39.757a3.744,3.744,0,0,1-3.747,3.747H100.667a3.744,3.744,0,0,1-3.747-3.747V69.1a3.729,3.729,0,0,1,3.747-3.729h11.565a3.729,3.729,0,0,1,3.747,3.729Zm32.857,82.162a3.744,3.744,0,0,1-3.747,3.747H133.524a3.744,3.744,0,0,1-3.747-3.747V151.261a3.744,3.744,0,0,1,3.747-3.747h11.565a3.744,3.744,0,0,1,3.747,3.747Z" transform="translate(0.016 -8.5)" fill="#00d0ff"/>
</svg>
