<svg xmlns="http://www.w3.org/2000/svg" width="182.183" height="181.136" viewBox="0 0 182.183 181.136">
  <path id="id-card" d="M148.481,212.578h-4.455a4.3,4.3,0,0,1-4.143-4.43,3.454,3.454,0,0,1,.958-2.414,32.29,32.29,0,0,0,6.308-10.1,1.731,1.731,0,0,0,1.041.421c2.5,0,5.413-5.847,5.413-9.856,0-3.987-.354-7.2-2.831-7.2a4.057,4.057,0,0,0-.937.155c-.167-10.809-2.748-24.32-18.279-24.32-16.2,0-18.071,13.467-18.279,24.275a3.235,3.235,0,0,0-.666-.089c-2.5,0-2.852,3.212-2.852,7.2s2.915,9.856,5.413,9.856a1.618,1.618,0,0,0,.874-.266,31.993,31.993,0,0,0,6.246,9.967,3.48,3.48,0,0,1,.958,2.414,4.316,4.316,0,0,1-4.164,4.43h-4.434c-9.514,0-17.175,8.151-17.175,18.229v5.05a5.616,5.616,0,0,0,5.413,5.781h57.293a5.616,5.616,0,0,0,5.413-5.781v-5.05C165.614,220.751,157.953,212.578,148.481,212.578Zm57.168-50.1h-48.07a39.7,39.7,0,0,1,2.81,12.248,7.58,7.58,0,0,1,2.436,3.057h42.8a4.132,4.132,0,0,0,4-4.253v-6.756A4.1,4.1,0,0,0,205.649,162.477Zm0,27.93H163.824c-1.145,4.563-3.956,9.347-7.807,10.609l-.375.665v4.053h49.985a4.122,4.122,0,0,0,4.018-4.253v-6.8A4.124,4.124,0,0,0,205.649,190.407Zm0,27.908H172.984a24.418,24.418,0,0,1,3.435,12.514v2.813h29.208a4.122,4.122,0,0,0,4.018-4.253v-6.756A4.15,4.15,0,0,0,205.649,218.315Zm14.323-102.506H179.313a.67.67,0,0,1-.645-.687V92.087a.67.67,0,0,0-.645-.687H132.263a.67.67,0,0,0-.645.687v23.035a.656.656,0,0,1-.645.687H87.17c-13.615,0-24.67,11.739-24.67,26.291V246.311c0,14.486,11.034,26.225,24.67,26.225H219.993c13.636,0,24.691-11.739,24.691-26.225V142.077C244.663,127.547,233.629,115.808,219.972,115.808ZM143.235,104.49a.67.67,0,0,1,.645-.687h22.5a.657.657,0,0,1,.645.687v23.833a.67.67,0,0,1-.645.687H143.9a.67.67,0,0,1-.645-.687C143.235,128.345,143.235,104.49,143.235,104.49ZM233,246.267c0,7.642-5.829,13.865-12.991,13.865H87.17c-7.182,0-13.012-6.224-13.012-13.865V142.077c0-7.664,5.829-13.865,13.012-13.865h43.781a.67.67,0,0,1,.645.687v11.85a.67.67,0,0,0,.645.687h45.8a.67.67,0,0,0,.645-.687V128.9a.67.67,0,0,1,.645-.687h40.659c7.2,0,13.032,6.2,13.032,13.865Z" transform="translate(-62.5 -91.4)" fill="#3246d3"/>
</svg>
