<svg xmlns="http://www.w3.org/2000/svg" width="167.557" height="189.956" viewBox="0 0 167.557 189.956">
  <path id="online-survey-icon" d="M12.444,0H155.1a12.475,12.475,0,0,1,12.46,12.46V132.543a12.491,12.491,0,0,1-12.46,12.444H96.725v-.247c0-2.087,0-4.127-.093-7.544H156.7a3.432,3.432,0,0,0,3.432-3.447V30.083H7.915V133.749a3.246,3.246,0,0,0,.108.866,11.347,11.347,0,0,0-.294,2.458,14.918,14.918,0,0,0,1.329,6.446,7.962,7.962,0,0,0,.557,1.082h0A12.506,12.506,0,0,1,0,132.543V12.46A12.475,12.475,0,0,1,12.444,0ZM41.553,106.773a5.194,5.194,0,0,1,5.55,5.163v33.113h3.355V128.8c0-6.57,10.357-6.369,10.357.371V145.4H64.6V132.45c0-6.57,10.357-6.369,10.357.356v12h3.648v-9.136c0-6.57,10.357-6.369,10.357.356,0,7.575.433,16.51.155,24.069-.294,8.3-2.01,17.654-8.023,22.879a28.1,28.1,0,0,1-23.188,6.6c-14.253-2.257-17.855-10.991-24.641-21.75l-17.236-27.3c-1.067-2.489-.928-4.174.139-5.256C20.807,132.3,28.2,138.6,36.452,147.522h.294V111.581A4.823,4.823,0,0,1,41.553,106.773ZM26.713,62.3a5.457,5.457,0,0,1,9.059-6.06l2.953,3.246L47.4,48.664a5.447,5.447,0,0,1,8.41,6.925L42.7,71.342a5.827,5.827,0,0,1-1.3,1.237,5.457,5.457,0,0,1-7.575-1.546l-7.111-8.781ZM136.237,106a5.72,5.72,0,0,0,0-11.424h-59.7a5.72,5.72,0,1,0,0,11.424Zm0-40.193a5.72,5.72,0,0,0,0-11.424h-59.7a5.72,5.72,0,1,0,0,11.424ZM27.269,84.451H55.651a3.88,3.88,0,0,1,3.88,3.88v23.915a3.9,3.9,0,0,1-3.88,3.88h-.819v-4.189a12.367,12.367,0,0,0-3.092-8.3V92.211H31.149v12.522a12.367,12.367,0,0,0-2.071,6.848v4.545H27.269a3.9,3.9,0,0,1-3.88-3.88V88.331a3.88,3.88,0,0,1,3.88-3.88ZM143.24,10.821A6.183,6.183,0,1,1,137.057,17,6.183,6.183,0,0,1,143.24,10.821Zm-41.661,0A6.183,6.183,0,1,1,95.4,17,6.183,6.183,0,0,1,101.579,10.821Zm20.838,0A6.183,6.183,0,1,1,116.234,17,6.183,6.183,0,0,1,122.417,10.821Z" fill="#3246d3" fill-rule="evenodd"/>
</svg>
