<svg xmlns="http://www.w3.org/2000/svg" width="192.171" height="183.941" viewBox="0 0 192.171 183.941">
  <path id="remove-bell-notification-icon" d="M110.52,11.2A63.674,63.674,0,0,1,123.766,17a59.034,59.034,0,0,0-11.549,5.622,53.218,53.218,0,0,0-6.827-2.293,5.091,5.091,0,0,1-3.614-3.513,8.7,8.7,0,0,0-4-5.153A11.186,11.186,0,0,0,92.155,10.2,10.671,10.671,0,0,0,86.6,11.646a8.533,8.533,0,0,0-3.873,5.1,5.149,5.149,0,0,1-3.716,3.551,54.046,54.046,0,0,0-39.853,42.45c-1.257,6.925-1.1,15.644-.95,23.661l.113,7.443c0,11.846-2.068,21.814-6.651,30.593-4.388,8.392-11.031,15.546-20.3,22.036l161.217,0a65.992,65.992,0,0,1-16.578-15.959,58.719,58.719,0,0,0,10.378-3.217,60.792,60.792,0,0,0,13.324,11.7,9.45,9.45,0,0,1,3.96,5.45l.079.33a9.909,9.909,0,0,1-3.063,9.518l-.439.349a9.547,9.547,0,0,1-5.889,2.012l-51.162.008-.034.139c-6.208,36.238-56.337,36.141-62.377-.124L9.65,156.7a9.46,9.46,0,0,1-6.595-2.594,9.749,9.749,0,0,1-2.7-4.5,9.85,9.85,0,0,1-.015-5.2,9.478,9.478,0,0,1,4.305-5.656c8.374-5.705,14.255-11.864,18-19.026,3.765-7.2,5.461-15.648,5.461-25.879l-.075-7.289c-.15-8.494-.323-17.723,1.107-25.613A64.235,64.235,0,0,1,73.955,11.109,18.507,18.507,0,0,1,81.368,2.9a21.567,21.567,0,0,1,21.563-.026A18.733,18.733,0,0,1,110.52,11.2Zm45.757,44.042,4.872,4.872a3,3,0,0,1,0,4.2l-8.362,8.362,8.362,8.362a3,3,0,0,1,0,4.2l-4.872,4.872a2.984,2.984,0,0,1-4.2,0l-8.366-8.362-8.366,8.37a2.992,2.992,0,0,1-4.2,0l-4.872-4.872a2.988,2.988,0,0,1,0-4.2l8.37-8.366-8.362-8.366a2.972,2.972,0,0,1,0-4.2l4.872-4.876a2.99,2.99,0,0,1,4.2,0l8.362,8.362,8.366-8.359A2.994,2.994,0,0,1,156.277,55.241ZM143.711,24.22a48.465,48.465,0,1,1-34.26,14.2,48.333,48.333,0,0,1,34.26-14.2ZM172.1,44.285a40.173,40.173,0,1,0,11.759,28.394A40.042,40.042,0,0,0,172.1,44.285Z" transform="translate(0 0.001)" fill="#ffa800"/>
</svg>
