<svg xmlns="http://www.w3.org/2000/svg" width="179.049" height="159.777" viewBox="0 0 179.049 159.777">
  <path id="svg" d="M93.633,213.755c-15.81.036-28.575-3.169-40.464-9.865-14.055-7.9-18.6-17.69-15.72-34.788C40.564,150.624,49.982,136,64.968,124.824c2.292-1.7,3.6-1.4,5.407.573,5.389,5.926,11.029,11.62,16.4,17.546,1.862,2.059,2.883,2.4,4.78-.036,4.637-5.926,9.668-11.53,14.359-17.421,1.558-1.97,2.721-2.489,5.031-1.038,18.262,11.548,28.486,28.038,31.87,49.327,3.438,21.5-10.152,29.578-25.353,35.5A64.233,64.233,0,0,1,93.633,213.755Zm-4.906-90.417c-15.595.09-28.844-13.375-28.772-29.238.054-15.434,13.052-28.468,28.593-28.719,15.81-.251,29.381,12.891,29.471,28.54A29.161,29.161,0,0,1,88.727,123.338ZM125,107.314c3.42,3.6,6.732,6.983,9.883,10.492,1.4,1.558,2.2,1.611,3.563-.107,3.617-4.584,7.5-8.934,11.137-13.464,1.361-1.719,2.4-2.166,4.458-.824,16.472,10.707,24.583,26,24.994,45.459.125,6.052-3.312,10.528-7.842,14.126a48.521,48.521,0,0,1-16.92,8.182c-2.077.591-2.811-.125-3.151-2.077-3.527-20.608-13.947-36.937-30.76-49.273-1.021-.734-2.059-1.343-.859-2.829,2.31-2.829,3.688-6.195,5.5-9.686ZM52.6,106.257c1.88,3.8,3.223,7.305,5.55,10.259,1.4,1.755-.3,2.274-1.217,3.026a76.848,76.848,0,0,0-26.57,39.837,53.007,53.007,0,0,0-1.934,9.6c-.161,1.54-.519,2.525-2.489,1.88-8.039-2.578-15.577-5.944-21.36-12.444C-1.135,151.985-.437,144.5,1,137.035c2.6-13.643,9.633-24.654,20.7-33.123,2.166-1.647,3.491-1.522,5.318.573,3.993,4.566,8.361,8.773,12.39,13.3,1.611,1.808,2.417,1.558,3.778-.2,2.9-3.706,6.016-7.269,9.418-11.333Zm84.365-52.263c9.221.215,16.418,4.566,20.357,13.321,3.9,8.63,2.632,16.973-3.67,24.063-6.249,7.054-14.2,9.292-23.4,6.8-2.256-.609-3.4-1.468-3.366-4.154a35.562,35.562,0,0,0-9.274-24.583c-1.4-1.593-1.432-2.721-.376-4.387,4.512-7.108,10.868-10.832,19.731-11.065ZM18.739,76.375A22.644,22.644,0,0,1,60.116,63.9c1.5,2.2,1.952,3.778-.215,6.213a34.975,34.975,0,0,0-8.845,23.956c-.018,2.345-.752,3.348-2.99,4.046A22.676,22.676,0,0,1,18.739,76.375Z" transform="translate(0.009 -53.993)" fill="#ee3158"/>
</svg>
