<svg xmlns="http://www.w3.org/2000/svg" width="187.85" height="181.362" viewBox="0 0 187.85 181.362">
  <path id="workers-group" d="M186.739,329.327a5.712,5.712,0,0,0-2.474-3.888c-7.233-5.273-15.4-8.267-23.665-11.06-1.84-.626-2.834-.2-4.06,1.363-9.136,11.573-20.62,17.159-35.022,14.7-9.813-1.676-17.4-7.284-23.5-15.394-.634-.827-1.079-1.854-2.453-1.408-9.136,2.9-18.166,6.055-26.139,11.8A5.852,5.852,0,0,0,67,329.372c-.656,3.553-1.332,7.127-2.305,10.591-.634,2.324-4.109,43.478-1.889,43.926,21.339,4.424,18.259,16.222,62.14,24.99,6.07-.134,29.2,1.028,38.7,0,.093-.01.186-.02,1.979-.241,7.438-.812,13-3.14,22.11-5.02,1.607-.335,1.967-61.219,1.544-62.939-.973-3.731-1.861-7.53-2.538-11.35ZM98.085,275.682c2.728-.2,5.9-.871,8.121.29,6.471,3.374,13.3,3.6,20.175,3.776,6.81.156,13.7.2,20.154-2.257a22.741,22.741,0,0,1,8.713-1.877c6.789.112,7.338-.67,6.344-7.932l-.021-.313c-.127-1.072-.613-1.944-1.713-1.854-1.8.179-1.819-.916-1.924-2.346a37.824,37.824,0,0,0-11.5-25.114c-2.538-2.458-6.281-3.575-7.529-7.529-.169-.536-.909-1.318-1.713-.916-.656.313-.381,1.117-.444,1.72-.444,5.228-.888,10.456-1.248,15.707-.127,1.854-.465,3.731-2.517,3.709-2.453-.045-2.284-2.212-2.221-4.067.169-5.362.211-10.725.592-16.065.233-3.351-1.819-2.5-3.511-2.636-1.819-.134-3.045,0-2.9,2.636.317,5.787.317,11.574.423,17.36.021,1.408-.338,2.659-1.9,2.771-1.586.112-2.411-.894-2.559-2.525-.233-2.458-.4-4.916-.613-7.373-.317-3.8-.656-7.619-1.015-11.6-2.284,1.452-2.39,1.408-3.13,3.329a4.126,4.126,0,0,1-1.713,2.1c-10.109,6.569-15.142,16.333-16.073,28.643-.106,1.341-.19,2.279-1.776,2.167-1.459-.089-1.924.894-1.9,2.279a39.322,39.322,0,0,1-.021,4.178c-.254,2.726.656,3.932,3.426,3.731Zm41.662-35.012c7.973,6.234,11.547,13.987,12.2,23.438.106,1.519-.635,2.056-1.8,2.435a58.274,58.274,0,0,1-12.2,2.413c-1.057.112-1.544-.089-1.4-1.3C137.59,258.88,138.626,250.077,139.747,240.67Zm-23.178.581c1.036,8.736,2.073,17.383,3.109,26.03.169,1.408-.211,1.855-1.65,1.653a57.057,57.057,0,0,1-11.589-2.3c-.909-.313-1.925-.425-2.051-1.9C103.837,257.405,109.336,244.58,116.569,241.251Zm-15.5,38.542c-1.882.268-4.906-1.609-5.054,2.5-.169,4.513,1.057,8.647,4.568,11.35a10.188,10.188,0,0,1,3.426,4.96c4.378,11.864,13.7,19.17,24.257,19.148a22.078,22.078,0,0,0,6.894-1.117c8.819-3.24,14.127-10.032,17.447-18.9.465-1.274.677-2.525,2.051-3.351,3.532-2.145,5.055-5.72,5.52-9.853.465-4.178-.042-4.692-3.955-4.849-1.9-.067-2.855.067-2.453,2.681.444,2.838.423,5.921-3.638,6.368-1.5.156-2.136,1.765-2.474,3.329a30.6,30.6,0,0,1-3,8.021c-5.372,9.943-15.4,13.741-24.321,8.96-6.387-3.419-9.792-9.406-11.568-16.534-.4-1.609-.761-3.53-2.432-3.709-3.955-.424-3.912-3.262-3.912-6.256C102.42,281.4,103.584,279.413,101.067,279.793Zm146.621,38.363a3.868,3.868,0,0,0-1.671-2.636c-4.906-3.575-10.447-5.608-16.073-7.507a2.133,2.133,0,0,0-2.77.938c-6.2,7.865-14,11.641-23.771,9.988-6.662-1.14-11.822-4.938-15.946-10.457-.423-.559-.74-1.251-1.671-.961a86.387,86.387,0,0,0-11.209,4.268,72.677,72.677,0,0,1,18.187,9.138,5.662,5.662,0,0,1,2.474,3.887c.4,2.234-2.559,76.591-2.051,78.8,5.076.246,11.018.067,16.517,0,4.124-.089,20.034.693,26.484,0,6.323-.67,6.951-4.616,13.169-5.89,1.1-.223.3-70.679,0-71.841C248.746,323.339,248.153,320.77,247.688,318.156Zm-60.167-36.4c1.84-.134,4-.581,5.52.2,4.4,2.279,9.03,2.435,13.683,2.547,4.61.112,9.305.134,13.683-1.519a15.5,15.5,0,0,1,5.9-1.274c4.61.067,4.97-.447,4.314-5.384a.882.882,0,0,0-.021-.223c-.085-.737-.4-1.318-1.163-1.251-1.227.112-1.227-.626-1.311-1.586a25.614,25.614,0,0,0-7.8-17.048c-1.734-1.676-4.251-2.413-5.1-5.117-.127-.357-.613-.894-1.163-.625-.444.223-.254.76-.3,1.162-.3,3.553-.592,7.105-.846,10.658-.085,1.251-.317,2.525-1.713,2.5-1.671-.022-1.544-1.5-1.5-2.77.127-3.642.148-7.284.4-10.9.169-2.279-1.227-1.7-2.39-1.788-1.248-.089-2.051,0-1.967,1.788.211,3.91.211,7.865.3,11.8.021.961-.233,1.81-1.29,1.877s-1.628-.6-1.755-1.72l-.423-5c-.212-2.592-.444-5.161-.677-7.865-1.544.983-1.628.961-2.115,2.257a2.819,2.819,0,0,1-1.163,1.43c-6.873,4.446-10.278,11.082-10.891,19.438-.063.916-.127,1.542-1.205,1.475-.994-.067-1.29.6-1.29,1.542a25.412,25.412,0,0,1-.021,2.838c-.19,1.9.423,2.7,2.305,2.57ZM215.8,258.008c5.414,4.223,7.825,9.5,8.29,15.908a1.447,1.447,0,0,1-1.227,1.654,40.507,40.507,0,0,1-8.269,1.631c-.719.067-1.058-.067-.952-.871C214.337,270.364,215.035,264.4,215.8,258.008Zm-15.734.38q1.047,8.882,2.115,17.651c.106.961-.148,1.251-1.121,1.117a39.34,39.34,0,0,1-7.867-1.564c-.613-.223-1.311-.291-1.375-1.3C191.434,269.359,195.156,260.667,200.062,258.388Zm-10.511,26.164c-1.269.2-3.32-1.095-3.426,1.7-.106,3.061.719,5.854,3.109,7.708a6.914,6.914,0,0,1,2.326,3.374c2.961,8.043,9.305,13,16.453,13a15.179,15.179,0,0,0,4.674-.76c5.985-2.19,9.6-6.815,11.843-12.825.317-.849.465-1.721,1.375-2.279,2.411-1.452,3.426-3.887,3.743-6.68.317-2.838-.042-3.2-2.686-3.284-1.29-.045-1.946.045-1.649,1.832.3,1.921.3,4.022-2.474,4.312-1.015.112-1.438,1.206-1.671,2.257a20.824,20.824,0,0,1-2.051,5.452c-3.638,6.748-10.447,9.317-16.5,6.077-4.335-2.324-6.641-6.39-7.846-11.216-.275-1.095-.508-2.391-1.649-2.525-2.686-.291-2.644-2.212-2.644-4.245C190.461,285.647,191.264,284.284,189.551,284.552Z" transform="translate(-62.07 -227.945)" fill="#52627a"/>
</svg>
